<?xml version="1.1" encoding="UTF-8"?><svg xmlns="http://www.w3.org/2000/svg" xmlns:xlink="http://www.w3.org/1999/xlink" version="2.0" width="210pt" height="70pt" viewBox="0 0 4200 1400" clip-rule="evenodd" fill-rule="evenodd" preserveAspectRatio="none"><path d="M1021 986v-1l157 6-25-7h-2-7l-4-4-32-13v-2-12Q959 823 825 674q-84-94-173-181h-7v-2-5l-50-47v16l-14 10-1 5v2 1h-8l-28 28v1 2 6 7 1 3 10l-116 4-70-11-41-5h-3l-28-11v-2-2q-21-16-35-42l-13-20h-2l-2-2-8-13q-13-16-30-29v-2-32-21h11l-3-51-30-3-6 50-9 75h3v1q17 30 44 50l76 72 1 4 5 5 16 25h5l179 3v-2l59 1Q684 744 839 895l226 206 1-58-45-7v-2-6-5-4-8-4-5-8-4-4m180-60 103 21 117 38h4v2l-3 176q-4 98-23 184v1h-13-1v1 2 2q-104 12-205-2l-176-26v-2-5-4l-8-1v-2-72l2-62h-1v-1l-1-1v-1h-2l-1-1v-1l-1-1h-1l-1-2-3-1v-2h-1l-1-1-1-1v-1h-2v-2l-3-1-1-1-1-1-1-1v-1l-1-1h-1l-1-1v-1h-2l-1-1-1-1-2-1v-1h-1v-1l-1-1v-1h-2l-1-1-1-1v-1l-3-1v-1l-2-1-1-1v-2l-3-1-1-2-1-1v-2l-3-1-2-1v-2l-1-1h-1l-1-1v-1l-1-1-2-1v-1-1l-1-1-2-2h-1v-1l-1-1-1-1-1-1-1-1v-1h-1l-1-1v-2-1l-2-1h-1l-2-1-1-1-1-1-1-1-2-1-1-1-1-1-1-1v-2h-1l-1-1-2-1h-1l-1-1v-3l-1-1-3-1-1-1v-2h-1l-2-2h-2v-1l-1-1-1-1v-1l-1-1-2-1h-1l-1-1v-1l-1-1-1-1-2-1v-1l-1-1-1-1v-1l-1-1-2-1v-1l-3-3v-1l-2-1-1-1-1-1-1-1v-1l-1-1v-1l-1-1-2-1v-1h-1v-1l-2-1-1-1v-1l-1-1v-1-1h-1l-1-1-1-1v-1l-1-1v-1l-3-1v-1l-2-1-1-1v-2l-3-1-2-1v-1l-1-1-3-1-1-1v-1l-1-1h-1l-1-1v-1l-1-1-1-1-1-1-1-1-3-1-1-1v-1l-2-1-1-1v-1l-2-1-2-1v-1-1h-1l-1-1-2-1v-1l-2-1v-1l-1-1v-1l-2-1-1-1v-1l-1-1h-1l-1-1v-1-1h-1l-1-1v-2h-1-1l-1-1-1-1-1-1-1-1v-1-1l-2-1v-2l-1-1-1-1v-1-1h-2v-1l-1-1v-2h-1l-1-1-1-1h-1l-2-1v-1l-1-1v-1l-3-2-2-1-1-1v-1-1l-3-1-1-1v-1h-2v-2-1h-1l-1-1h-1l-1-1v-1h-1v-1l-1-1h-1l-1-1v-1l-1-1-2-1-1-2-3-1-2-1v-1l-1-1v-1l-3-2v-1h-1l-1-1v-2h-1l-1-1v-1l-1-1-1-1v-2h-1l-1-1-1-1-1-1h-1v-1l-1-1v-2l-2-1-3-1-1-1v-2l-1-1-1-1h-1v-1l-1-1v-1l-1-1v-2h-1-1v-1l-1-1v-1-1h-3v-1l-1-1-1-1v-1l-1-1-1-1v-1h-1l-1-1-1-1v-2h-2v-1l-1-1-1-2h-1l-1-1v-1l-1-1v-1l-3-1v-1l-1-1v-1h-1l-1-2-2-1h-1l-1-1v-2l-1-1v-1h-3v-1h-1v-2l-2-2v-1h-3v-1h-1v-2l-2-1v-1l-2-1h-1l-1-1-1-1v-1l-1-1v-1h-3v-1h-2v-1l-1-1-1-1-1-1-1-1-3-1v-1-1l-3-1v-1l-1-1-1-1v-2l-3-1-1-1-1-1-1-1-2-1-1-1v-1l-1-1-1-1v-1l-3-1v-1l-2-1v-1l-2-1-2-1-1-1v-1-2h-2l-1-1-4-5-3-3h-1l-2-1-1-2-2-1-1-1v-1h-1-1v-1l-1-1v-1l-3-1v-2l-1-1-2-1h-1l-1-1-1-1-2-2v-1l-1-1-2-1-1-1v-2h-1l-1-1-1-1-1-1h-1v-1l-1-1-2-1v-1l-1-1-1-1-1-1-1-1v-1l-1-1-1-1-2-1v-1h-1l-1-1v-1-1h-2v-1h-1v-2l-2-1-1-1v-1l-1-1h-1l-1-2-2-1-1-1v-1l-1-1v-2l-3-1-2-1v-1l-1-1-2-1-1-1v-1l-1-1-1-1v-1h-2l-1-1v-1l-1-1-1-1-1-1-2-1-1-1v-1h-1l-1-2h-1v-1l-1-1-1-1v-1l-1-1-2-1-1-1v-1l-1-1-1-1v-1h-1l-1-1-1-1-1-1-1-1v-1l-2-1v-2l-2-1-1-1-1-2v-1l-1-1-1-1-1-1v-2l-2-1-2-2-1-1-1-2v-1l-1-1v-1l-1-1h-2v-1l-1-1v-1-1h-1-1v-1l-1-1v-1l-1-1h-1l-1-1-1-1v-1l-2-1-1-1v-1l-1-1-1-1-1-1-1-1-1-1-1-1-1-1v-1l-2-1v-1h-1v-2l-1-1-1-1-1-1-1-1v-1h-1l-1-1-1-1v-1l-4-1v-1l-2-1-1-2-3-1v-1l-2-2-2-1-1-1-1-1h-1v-1l-1-1v-1l-3-1-1-1v-1l-2-1v-1l-3-1v-1l-1-1-2-1v-1h-1v-1l-1-1h-1l-1-1v-1h-1v-1l-1-1v-2l-3-1-2-1-209 4-15-5H227v-3l-1-1-2-3v-2-1-1l-3-1v-1l-2-2v-1l-5-2-1-2v-1l-1-1-2-1-1-2-2-2-2-2-1-1-2-2-1-1-2-2v-1l-5-1-1-1-2-2-1-1-2-2-1-1-2-2-1-1-2-2v-1l-5-2-1-1-2-1-1-1-2-2v-1l-3-2-1-1-2-2v-1l-5-1v-2-2l-1-1-10-4-6-5v-1l-1-1-2-2v-1l-8-1-1-1-2-2v-2-2l-2-2-1-1-6-2-2-2v-2-2h-1l-2-2v-1l-6-2-2-2v-2-2l-1-1-2-1-1-1-2-2v-1l-6-2v-2-14-2-37-2-1l6-71 19-151q40-5 71-1l41 8h26v2 5l3 1v47q0 46 17 82l15 19 1 1v1l2 2q25 37 63 67l51 3 45 5 5-3 56-50 10-6 2-25 8-85-34-34-28-23v-1-7q-40-6-74-28-48-32-103-53v-2h-3v-2-4h-5v-2-41V88 86 83 82 75 60 45 43 37h5 14l118-3q36-2 67 1V20h57q35 43 81 83l26 27 18 2 1 2v10h22v2 27 28 12l-3 2v2 6 7 4l1 1 2 1v3 40 42 12 2l3 3v10 65 19L937 677l121 129q65 67 143 120M527 186q19 5 32 20l36 36v2 5 15 6 27l-1 1-3 39-3 31h29V297l2-74q-14-28-34-48L510 97 351 93v6q54 7 97 34l79 44v2 7m831 902-2 33-8 95h1l4-35 8-93h-3m7-51v-3l-5-1v2l5 2m-126 43-92-21-2 67-2 80 65 3 81 4 5-56 6-68-61-9m105 216 2-32q-103 8-205 4v6l86 11 117 11" fill="#fff"/><path d="M518 605H504l-1 1h-7l-100 1-127 4q-32-45-74-82l-32-35-26-32v-2-2l-1-79-2-128v-1l57 3v2 3l6-1 8 5 31 1v1l4 17-2 91-1 9 1 15q36 25 64 64 16 23 38 41l162 9q8-30 41-50l7-4 7-51 2-137-33-29-56-70v-1L330 139l-4-2-15-6v-2-23V76l43-1 177-7L656 204l-4 45 3 69 4 144v1 3 7l-7 6-12 15-13 14-1 1-1 1-1 1-6 8q-29 36-64 57l-3 4-10 7-23 18m646 364 5 2 51 12h9q74 10 143 39 11 4 11 17l-3 84-1 14-15 190-9 9q-151 11-297-20-18-4-20-22l-8-96-2-16q7-34-1-59l-1-4h-1l1-8h-4l-5-7v-1l1-1 5-4 22-18v-3h1l45-48 3-5q7-12 17-18l1-12 20-2v-7-1-5l24-2 8-8m158 98-1-5-142-20-59-3-10 7-2 3-1 71-11 140v2l39 6h181q-2-66 1-131l1-14 4-56"/><path d="M659 463l6 3 1 1-7 6v-7-3" fill="#fff"/><path d="M1017 1104v3 2l-12 1 1 1-1 3v1h-1l-44-41-43-37-1-1v-1h-1-1v-1l-1-1-2-1v-1l-1-1-2-1v-1h-1v-1l-2-1v-1l-1-1v-1l-2-1h-2l-1-1v-1h-1l-11-9-76-70v-1h-1l-5-5v-1h-1l-37-38h-1l-1-2-1-1v-2l-2-1v-1l-1-2-3-2v-2l-2-1-1-1v-1l-3-1v-1l-1-1h-1v-1l-1-1-2-1v-1l-2-1-1-1v-1l-2-1v-1l-1-1v-1-1h-3v-1l-2-1-1-1v-2l-2-2-2-1-2-1v-1-1l-2-1-5-4 1-1h-2l-64-76-23-23-8-7-17-13v-1h-1v-1l-2-1-1-1v-1l-2-1-1-1v-1h-2v-1l-1-1v-1h-2v-1l-1-1v-1h-3l-2-2v-1l-43-43q-24-26-51-47l4-2 3-2 2-1-1-1 4-1v-1-2l3-2v-1l6-4 23-18 10-7 3-4h1l5 4 24 20 9 9 33 34-2 1 6 5 24 20 8 9 39 41Q828 848 946 988l13 16 12 12 34 33 7 5 5 4 21 14 7 5v3l-22 18-5 4-1 1v1M666 467l5-4q17 32 48 58Q854 638 983 763l191 183 4 9-10 11-3 3h-1l-8 8-24 2v5l-21-19-4-4-16-14-27-25L859 730 723 603l-27-27 1-1-43-41-27-26 13-14 12-15 7-6 7-6" fill="#9d5600"/><path d="M1045 1077l-7-5-21-14-5-4-7-5-34-33-12-12-13-16Q828 848 701 719l-39-41-8-9-24-20-6-5 2-1-33-34-9-9-24-20-5-4h-1q35-21 64-57l6-8 1-1 1-1 1-1 27 26 43 41-1 1 27 27L859 730l205 192 27 25 16 14 4 4 21 19v1 7l-20 2-1 12q-10 6-17 18l-3 5-45 48h-1" fill="#ff910b"/><path d="M4093 876h-91q-76-1-75-61V520h69v97h97v40h-97V820q0 15 19 15h78v41M3533 520V734l120-117h85L3626 726l117 150h-76l-84-108-50 48v60h-70V520h70m-140 0V876h-69V520h69M3253 815q0 60-75 61H3043q-75-1-75-61V677q0-60 75-60h135q75 0 75 60V815m604-241h-71V520h71v54m0 302h-71V617h71V876M2593 252l49 99 48-99h37l-95 193h-36l27-57-67-136h37m-57 103q0 31-39 31H2387V201h37v51h73q39-1 39 31v72m-46-82h-66v92h66q10 0 10-8V280q0-8-10-7m333 344q75 0 75 60V815q0 60-75 61H2688q-76-1-75-61V677q-1-60 75-60h135m-14 40H2702q-20 0-20 15V820q0 15 20 15h107q19 0 19-15V672q0-15-19-15m-213-91H2445V876h-75V566H2219V520h377v46m568 91H3057q-20 0-19 15V820q-1 15 19 15h107q19 0 19-15V672q0-15-19-15M2225 252V201h37V386H2152q-39 0-39-31V283q0-32 39-31h73m-76 28v77q0 8 10 8h66V273h-66q-10-1-10 7m-119-7h-50q-10-1-10 7v25h70V280q-1-8-10-7m46 10v43H1970v31q0 8 10 8h91v21h-98q-40 0-40-31V283q0-32 40-31h64q39-1 39 31m-330-3q-1-8-11-7h-50q-10-1-10 7v25h71V280m36 46H1675v31q0 8 10 8h91v21h-98q-40 0-39-31V283q-1-32 39-31h64q39-1 40 31v43m36-43q0-32 40-31h47v21h-40q-11-1-11 7V386h-36V283m204 334 65 189 65-189h67l-89 259h-78l-65-189-65 189h-77l-89-259h67l65 189 64-189h70m-278-97-153 149 159 207h-86L1542 717l-67 64v95h-75V520h75V691l177-171h92M1353 355q-1 31-40 31h-70q-39 0-39-31V283q0-32 39-31h70q39-1 40 31v72m57-103 34 98 33-98h37l34 98 33-98h35l-46 134h-41l-34-98-33 98h-41l-46-134h35m-104 21h-56q-10-1-10 7v77q0 8 10 8h56q10 0 10-8V280q0-8-10-7m-175 7q0-8-10-7h-66v92h66q10 0 10-8V280m36 75q0 31-39 31h-73v59h-36V252h109q39-1 39 31v72" fill="#fff"/></svg>